<?xml version="1.0" encoding="UTF-8" standalone="no" ?>
<!DOCTYPE svg PUBLIC "-//W3C//DTD SVG 1.1//EN" "http://www.w3.org/Graphics/SVG/1.1/DTD/svg11.dtd">
<svg xmlns="http://www.w3.org/2000/svg" xmlns:xlink="http://www.w3.org/1999/xlink" version="1.1" width="360" height="500" viewBox="0 0 360 500" xml:space="preserve">
<desc>Created with Fabric.js 5.2.4</desc>
<defs>
</defs>
<rect x="0" y="0" width="100%" height="100%" fill="transparent"></rect>
<g transform="matrix(1 0 0 1 180 250)" id="148f89fa-cb9f-4136-8d44-ed13671116f4"  >
<rect style="stroke: none; stroke-width: 1; stroke-dasharray: none; stroke-linecap: butt; stroke-dashoffset: 0; stroke-linejoin: miter; stroke-miterlimit: 4; fill: rgb(255,255,255); fill-rule: nonzero; opacity: 1; visibility: hidden;" vector-effect="non-scaling-stroke"  x="-180" y="-250" rx="0" ry="0" width="360" height="500" />
</g>
<g transform="matrix(Infinity NaN NaN Infinity 0 0)" id="c60c8714-0ef7-4cfd-8467-8a16200f93f8"  >
</g>
<g transform="matrix(0.41 0 0 0.41 180 250)"  >
<path style="stroke: none; stroke-width: 1; stroke-dasharray: none; stroke-linecap: butt; stroke-dashoffset: 0; stroke-linejoin: miter; stroke-miterlimit: 4; fill: rgb(0,72,132); fill-opacity: 0.5; fill-rule: evenodd; opacity: 1;" vector-effect="non-scaling-stroke"  transform=" translate(-805.2, -547.64)" d="M 964.625 148.367 C 1016.86 144.521 1067.71 184.263 1078.23 237.176 L 1198.96 843.936 C 1210.36 901.242 1169.93 949.445 1112.43 947.094 L 560.83 924.537 C 507.715 922.365 461.016 877.619 456.509 824.577 L 409.86 275.545 C 405.702 226.675 438.943 187.081 487.093 183.534 L 964.625 148.367 Z" stroke-linecap="round" />
</g>
<g transform="matrix(0.41 0 0 0.41 180 252)"  >
<path style="stroke: none; stroke-width: 1; stroke-dasharray: none; stroke-linecap: butt; stroke-dashoffset: 0; stroke-linejoin: miter; stroke-miterlimit: 4; fill: rgb(0,72,132); fill-rule: evenodd; opacity: 1;" vector-effect="non-scaling-stroke"  transform=" translate(-803.8, -556.43)" d="M 947.026 186.089 C 995.496 183.153 1043.17 220.528 1053.56 269.605 L 1172.71 832.389 C 1183.96 885.543 1146.97 929.655 1093.55 926.794 L 581.014 899.346 C 531.661 896.703 487.774 854.749 482.974 805.624 L 433.292 297.13 C 428.865 251.869 459.277 215.635 503.952 212.928 L 947.026 186.089 Z" stroke-linecap="round" />
</g>
</svg>