<svg width="571" height="687" viewBox="0 0 571 687" fill="none" xmlns="http://www.w3.org/2000/svg">
<path d="M513.787 547.531H475.962V547.874H513.787V547.531Z" fill="#EBEBEB"/>
<path d="M378.253 551.26H368.326V551.604H378.253V551.26Z" fill="#EBEBEB"/>
<path d="M474.819 534.772H452.901V535.115H474.819V534.772Z" fill="#EBEBEB"/>
<path d="M109.235 537.08H59.9082V537.424H109.235V537.08Z" fill="#EBEBEB"/>
<path d="M126.635 537.08H119.403V537.424H126.635V537.08Z" fill="#EBEBEB"/>
<path d="M257.118 542.883H150.14V543.226H257.118V542.883Z" fill="#EBEBEB"/>
<path d="M272.254 464.137H51.7348C48.141 464.137 45.2163 460.619 45.2163 456.295V83.3469C45.2163 79.023 48.141 75.5042 51.7348 75.5042H272.254C275.847 75.5042 278.771 79.023 278.771 83.3469V456.295C278.771 460.619 275.847 464.137 272.254 464.137ZM51.7348 75.849C48.2974 75.849 45.5018 79.2126 45.5018 83.3483V456.296C45.5018 460.432 48.2974 463.795 51.7348 463.795H272.254C275.69 463.795 278.486 460.432 278.486 456.296V83.3469C278.486 79.2126 275.69 75.8477 272.254 75.8477L51.7348 75.849Z" fill="#EBEBEB"/>
<path d="M519.265 464.137H298.746C295.153 464.137 292.229 460.619 292.229 456.295V83.3469C292.229 79.023 295.153 75.5042 298.746 75.5042H519.265C522.86 75.5042 525.784 79.023 525.784 83.3469V456.295C525.784 460.619 522.859 464.137 519.265 464.137ZM298.746 75.849C295.31 75.849 292.514 79.2126 292.514 83.3483V456.296C292.514 460.432 295.31 463.795 298.746 463.795H519.265C522.702 463.795 525.498 460.432 525.498 456.296V83.3469C525.498 79.2126 522.702 75.8477 519.265 75.8477L298.746 75.849Z" fill="#EBEBEB"/>
<path d="M571 525.415H0V525.759H571V525.415Z" fill="#EBEBEB"/>
<path d="M399.784 517.438H508.476V343.428H399.784V517.438Z" fill="#F5F5F5"/>
<path d="M379.049 517.438H399.783V343.428H379.049V517.438Z" fill="#E6E6E6"/>
<path d="M406.838 398.597H500.863V356.34H406.838V398.597Z" fill="#FAFAFA"/>
<path d="M466.111 356.34L465.7 361.973C465.564 363.831 464.271 365.257 462.72 365.257H444.978C443.428 365.257 442.135 363.833 441.999 361.973L441.588 356.34H466.111Z" fill="#EBEBEB"/>
<path d="M406.838 445.471H500.863V403.214H406.838V445.471Z" fill="#FAFAFA"/>
<path d="M466.111 403.213L465.7 408.846C465.564 410.704 464.271 412.13 462.72 412.13H444.978C443.428 412.13 442.135 410.704 441.999 408.846L441.588 403.213H466.111Z" fill="#EBEBEB"/>
<path d="M406.838 492.344H500.863V450.087H406.838V492.344Z" fill="#FAFAFA"/>
<path d="M466.111 450.087L465.7 455.72C465.564 457.578 464.271 459.004 462.72 459.004H444.978C443.428 459.004 442.135 457.578 441.999 455.72L441.588 450.087H466.111Z" fill="#EBEBEB"/>
<path d="M406.838 526.125H499.72L500.862 517.424H406.838V526.125Z" fill="#E6E6E6"/>
<path d="M387.424 526.125H406.838V517.424H386.282L387.424 526.125Z" fill="#E0E0E0"/>
<path d="M450.498 343.615H487.613L483.495 286.985H446.38L450.498 343.615Z" fill="#FAFAFA"/>
<path d="M450.498 343.615H448.726L444.608 286.985H446.38L450.498 343.615Z" fill="#EBEBEB"/>
<path d="M453.862 337.842H483.409L480.131 292.758H450.584L453.862 337.842Z" fill="#F0F0F0"/>
<path d="M456.025 334.131H480.707L477.968 296.469H453.286L456.025 334.131Z" fill="#E6E6E6"/>
<path d="M440.07 343.615L442.619 308.563H405.672L403.123 343.615H440.07Z" fill="#F0F0F0"/>
<path d="M440.07 343.615L442.619 308.563H444.608L442.059 343.615H440.07Z" fill="#E0E0E0"/>
<path d="M436.563 340.042L438.592 312.137H409.179L407.149 340.042H436.563Z" fill="#EBEBEB"/>
<path d="M434.308 337.744L436.003 314.434H411.433L409.737 337.744H434.308Z" fill="#F5F5F5"/>
<path d="M354.756 502.568C354.756 511.856 353.544 517.865 351.503 521.719C349.968 524.619 347.214 526.249 344.355 526.249H333.178C330.32 526.249 327.566 524.618 326.03 521.719C323.989 517.863 322.777 511.856 322.777 502.568C322.777 489.096 327.659 478.31 329.254 469.698C329.828 466.597 327.916 457.093 327.916 457.093H349.614C349.614 457.093 347.703 466.598 348.277 469.698C349.874 478.31 354.756 489.096 354.756 502.568Z" fill="#EBEBEB"/>
<path d="M391.706 448.044C391.706 436.347 376.465 441.203 372.623 423.056C371.167 416.179 383.564 400.616 383.564 400.616H344.913C344.913 400.616 357.309 416.179 355.853 423.056C352.011 441.203 336.77 436.347 336.77 448.044C336.77 460.926 358.271 487.756 359.307 517.956C359.399 520.655 355.263 526.25 355.263 526.25H373.213C373.213 526.25 369.076 520.655 369.169 517.956C370.206 487.756 391.706 460.926 391.706 448.044Z" fill="#F5F5F5"/>
<path d="M380.025 478.441C382.271 472.755 377.626 453.427 377.626 453.427H394.376C394.376 453.427 389.73 472.756 391.977 478.441C393.563 482.454 397.171 485.017 397.171 489.765V518.306C397.171 525.697 392.145 526.249 386.001 526.249C379.857 526.249 374.831 525.698 374.831 518.306V489.765C374.831 485.017 378.438 482.454 380.025 478.441Z" fill="#F0F0F0"/>
<path d="M188.604 309.876C178.981 304.862 173.49 294.282 176.367 286.291C179.243 278.3 189.413 275.877 199.036 280.89C208.661 285.903 214.15 296.485 211.275 304.476C208.398 312.467 198.228 314.889 188.604 309.876ZM196.264 288.591C191.754 286.241 186.99 287.378 185.642 291.122C184.295 294.866 186.867 299.823 191.376 302.173C195.886 304.522 200.652 303.388 201.999 299.643C203.347 295.899 200.773 290.94 196.264 288.591Z" fill="#E6E6E6"/>
<path d="M199.925 289.035L195.353 286.652L222.986 209.797C223.533 208.278 224.999 207.578 226.262 208.237C227.524 208.895 228.105 210.658 227.558 212.177L199.925 289.035Z" fill="#E6E6E6"/>
<path d="M229.676 219.608L220.902 214.995L222.881 209.494L231.656 214.106L229.676 219.608Z" fill="#E6E6E6"/>
<path d="M225.351 225.759L219.068 222.475L221.048 216.974L227.33 220.258L225.351 225.759Z" fill="#E6E6E6"/>
<path d="M218.514 227.486L216.534 232.987L223.58 236.658L225.56 231.157L218.514 227.486Z" fill="#E6E6E6"/>
<path d="M201.704 280.831L199.191 279.523C197.939 278.87 197.364 277.121 197.906 275.615L197.923 275.568C198.466 274.062 199.92 273.37 201.171 274.023L203.684 275.331C204.935 275.983 205.511 277.732 204.968 279.238L204.951 279.285C204.409 280.789 202.955 281.482 201.704 280.831Z" fill="#E6E6E6"/>
<path d="M397.952 254.41C405.576 260.521 407.543 273.144 402.335 282.549C397.127 291.953 386.686 294.632 379.062 288.521C371.437 282.408 369.47 269.784 374.678 260.38C379.886 250.975 390.327 248.298 397.952 254.41ZM384.082 279.457C387.655 282.32 392.547 281.065 394.987 276.659C397.428 272.253 396.506 266.338 392.933 263.474C389.359 260.609 384.467 261.864 382.027 266.27C379.587 270.677 380.509 276.593 384.082 279.457Z" fill="#E6E6E6"/>
<path d="M382.236 277.018L386.962 280.807L353.143 343.077C352.274 344.647 350.51 345.073 349.204 344.026C347.899 342.981 347.546 340.859 348.415 339.29L382.236 277.018Z" fill="#E6E6E6"/>
<path d="M348.628 325.712L358.574 333.75L353.609 342.717L343.643 334.664C342.212 333.508 341.828 331.177 342.783 329.451L344.279 326.751C345.24 325.016 347.19 324.551 348.628 325.712Z" fill="#E6E6E6"/>
<path d="M259.847 135.416L254.598 151.778C254.125 153.252 252.748 153.986 251.522 153.417C250.297 152.848 249.687 151.191 250.16 149.715L255.41 133.354C257.105 128.071 254.913 122.109 250.521 120.068L245.656 117.808C241.265 115.768 236.311 118.41 234.616 123.694L232.472 130.375L228.035 128.314L230.178 121.633C232.819 113.403 240.533 109.294 247.37 112.469L252.235 114.729C259.071 117.906 262.488 127.186 259.847 135.416Z" fill="#F0F0F0"/>
<path d="M259.017 137.994C258.668 137.451 258.193 137.008 257.623 136.743L231.127 124.436C230.537 124.162 229.915 124.105 229.339 124.245C228.28 124.495 227.343 125.376 226.926 126.675L216.697 158.553C216.049 160.57 216.881 162.829 218.558 163.608L245.054 175.915C246.73 176.694 248.608 175.693 249.255 173.675L259.484 141.797C259.909 140.475 259.698 139.042 259.017 137.994ZM238.9 162.627L230.497 158.723L234.939 149.392C234.38 148.039 234.277 146.415 234.766 144.89C235.693 142.002 238.39 140.556 240.792 141.672C243.192 142.788 244.39 146.041 243.464 148.929C242.975 150.454 241.992 151.573 240.815 152.121L238.9 162.627Z" fill="#E6E6E6"/>
<path d="M78.9772 507.633L290.395 507.633V370.739H78.9772V507.633Z" fill="#E6E6E6"/>
<path d="M273.446 525.396H286.733V513.317H273.446V525.396Z" fill="#E6E6E6"/>
<path d="M62.839 525.396H76.1262L76.1262 360.555H62.839L62.839 525.396Z" fill="#E6E6E6"/>
<path d="M75.967 360.554V525.396H83.0531V516.158H286.733V525.396H293.821V360.554H290.277H286.733H83.0543H79.5107H75.967ZM83.0543 375.476H181.351V432.729H83.0543V375.476ZM286.733 501.238H188.437V375.476H286.733V501.238ZM83.0543 501.238V441.255H181.351V501.238H83.0543Z" fill="#F0F0F0"/>
<path d="M188.438 501.237H280.09V381.633H188.438V501.237Z" fill="#F5F5F5"/>
<path d="M192.587 437.851C192.587 440.681 194.493 442.975 196.845 442.975C199.197 442.975 201.104 440.682 201.104 437.851C201.104 435.021 199.198 432.728 196.845 432.728C194.494 432.729 192.587 435.022 192.587 437.851Z" fill="#FAFAFA"/>
<path d="M196.846 442.975C198.563 442.975 200.034 441.745 200.707 439.984C200.956 440.635 201.103 441.352 201.103 442.115C201.103 444.944 199.197 447.239 196.844 447.239C194.493 447.239 192.586 444.945 192.586 442.115C192.586 441.352 192.734 440.634 192.982 439.984C193.657 441.745 195.128 442.975 196.846 442.975Z" fill="#E0E0E0"/>
<path d="M244.544 501.238H222.679L212.23 381.634H234.096L244.544 501.238Z" fill="#FAFAFA"/>
<path d="M217.078 501.238H212.726L202.278 381.634H206.63L217.078 501.238Z" fill="#FAFAFA"/>
<path d="M159.199 432.673H167.86V381.516H159.199V432.673Z" fill="#FAFAFA"/>
<path d="M123.286 432.673H131.947V381.516H123.286V432.673Z" fill="#F5F5F5"/>
<path d="M150.537 432.672H159.198V385.11H150.537V432.672Z" fill="#F5F5F5"/>
<path d="M131.948 432.672H140.609V385.11H131.948V432.672Z" fill="#FAFAFA"/>
<path d="M140.608 432.673H146.205V381.516H140.608V432.673Z" fill="#EBEBEB"/>
<path d="M146.206 432.672H150.536V385.11H146.206V432.672Z" fill="#FAFAFA"/>
<path d="M114.625 432.673H123.286V381.516H114.625V432.673Z" fill="#EBEBEB"/>
<path d="M105.963 432.672H114.624V385.11H105.963V432.672Z" fill="#E6E6E6"/>
<path d="M87.3742 432.672H96.0352V385.11H87.3742V432.672Z" fill="#E6E6E6"/>
<path d="M96.0346 432.673H101.632V381.516H96.0346V432.673Z" fill="#FAFAFA"/>
<path d="M101.632 432.672H105.963V385.11H101.632V432.672Z" fill="#EBEBEB"/>
<path d="M83.0431 432.673H87.3735V382.727H83.0431V432.673Z" fill="#EBEBEB"/>
<path d="M91.7039 450.08H83.043V501.237H91.7039V450.08Z" fill="#EBEBEB"/>
<path d="M127.616 450.08H118.955V501.237H127.616V450.08Z" fill="#FAFAFA"/>
<path d="M100.365 453.676H91.7039V501.238H100.365V453.676Z" fill="#FAFAFA"/>
<path d="M118.954 453.676H110.293V501.238H118.954V453.676Z" fill="#EBEBEB"/>
<path d="M110.293 450.08H104.696V501.237H110.293V450.08Z" fill="#FAFAFA"/>
<path d="M104.696 453.676H100.366V501.238H104.696V453.676Z" fill="#F5F5F5"/>
<path d="M136.277 450.08H127.616V501.237H136.277V450.08Z" fill="#EBEBEB"/>
<path d="M144.938 453.676H136.277V501.238H144.938V453.676Z" fill="#F5F5F5"/>
<path d="M163.528 453.676H154.867V501.238H163.528V453.676Z" fill="#E6E6E6"/>
<path d="M154.867 450.08H149.27V501.237H154.867V450.08Z" fill="#FAFAFA"/>
<path d="M173.456 450.08H167.859V501.237H173.456V450.08Z" fill="#FAFAFA"/>
<path d="M149.27 453.676H144.939V501.238H149.27V453.676Z" fill="#EBEBEB"/>
<path d="M167.859 451.292H163.529V501.238H167.859V451.292Z" fill="#EBEBEB"/>
<path d="M92.7075 272.448C92.7075 272.448 91.2537 273.253 90.589 274.88C89.9244 276.507 91.9857 279.51 91.9857 279.51C91.9857 279.51 93.7158 280.96 95.4357 280.02C97.1555 279.08 97.1555 279.08 97.1555 279.08C97.1555 279.08 94.2149 272.941 92.7874 272.879L92.7075 272.448Z" fill="#E6E6E6"/>
<path d="M100.071 272.4C100.281 275.311 98.7807 278.985 96.6201 279.211C94.4594 279.436 92.4563 276.129 92.2462 273.216C92.0361 270.304 93.781 270.02 95.9417 269.795C98.1012 269.569 99.861 269.488 100.071 272.4Z" fill="#E6E6E6"/>
<path d="M93.741 271.542C93.741 271.542 95.3923 273.125 98.7943 272.2C98.7943 272.2 93.428 276.508 93.741 271.542Z" fill="#E6E6E6"/>
<path d="M95.197 270.964C95.197 270.964 97.1019 270.565 97.1293 271.522C97.1293 271.522 98.7452 271.413 98.5214 270.6C98.2987 269.786 95.197 270.964 95.197 270.964Z" fill="#E6E6E6"/>
<g opacity="0.2">
<path d="M93.741 271.542C93.741 271.542 95.3923 273.125 98.7943 272.2C98.7943 272.2 93.428 276.508 93.741 271.542Z" fill="#FAFAFA"/>
</g>
<g opacity="0.2">
<path d="M95.197 270.964C95.197 270.964 97.1019 270.565 97.1293 271.522C97.1293 271.522 98.7452 271.413 98.5214 270.6C98.2987 269.786 95.197 270.964 95.197 270.964Z" fill="#FAFAFA"/>
</g>
<path d="M92.9917 280.131C93.6792 281.472 95.0816 282.162 96.3812 281.975C97.6819 281.788 98.8524 280.811 99.6027 279.52C100.353 278.228 100.71 276.649 100.794 275.078C100.816 274.671 100.842 273.653 100.396 273.495C99.9876 273.35 99.7352 274.039 99.5456 274.359C99.0009 275.282 98.4231 276.147 97.7299 276.917C97.0572 277.663 96.3138 278.317 95.5178 278.859C95.294 279.01 93.1128 280.367 92.9917 280.131Z" fill="#E6E6E6"/>
<path d="M102.263 274.316C102.671 275.497 102.523 276.933 101.885 277.955C101.465 278.627 100.872 279.106 100.273 279.54C99.8575 279.843 99.3219 280.128 98.9142 279.811C98.4746 279.469 98.5145 278.691 98.615 278.073C98.7703 277.121 98.9474 276.173 99.1461 275.232C99.3094 274.459 99.4076 273.168 99.7833 272.512C100.137 271.895 100.639 272.261 101.173 272.709C101.649 273.109 102.039 273.668 102.263 274.316Z" fill="#E6E6E6"/>
<g opacity="0.2">
<path d="M93.5444 278.518C92.7096 278.476 91.9205 277.795 91.6167 276.86C91.3929 276.167 91.3963 274.41 92.1421 274.187C92.4721 275.747 92.7576 277.165 93.5444 278.518Z" fill="#FAFAFA"/>
</g>
<g opacity="0.2">
<path d="M99.1758 278.448C99.9638 278.177 100.619 277.402 100.859 276.46C100.992 275.939 100.824 273.278 100.167 274.396C99.9523 274.762 99.9923 275.929 99.8804 276.402C99.7125 277.112 99.4761 277.802 99.1758 278.448Z" fill="#FAFAFA"/>
</g>
<g opacity="0.2">
<path d="M96.1585 280.091C96.7683 280.715 97.7424 280.745 98.3774 280.16C98.294 280.675 96.9465 281.105 96.5285 281.252C95.4402 281.637 94.8703 281.061 93.814 280.531C93.814 280.531 95.487 280.837 96.1585 280.091Z" fill="#FAFAFA"/>
</g>
<path d="M94.2686 333.609L94.3713 293.966L96.0615 281.91L96.7033 282.041L95.0211 294.041L94.9024 334.361L94.2686 333.609Z" fill="#E0E0E0"/>
<path d="M94.9549 293.765L94.4387 294.242C93.9214 293.432 93.4554 292.374 92.9164 291.148C92.0827 289.255 91.1372 287.107 89.7017 285.208L90.1836 284.682C91.6739 286.655 92.64 288.848 93.492 290.782C94.0161 291.976 94.4707 293.007 94.9549 293.765Z" fill="#E0E0E0"/>
<path d="M95.3524 288.448C96.2295 288.17 97.0152 287.498 97.5211 286.593C98.0955 285.565 98.2954 284.308 98.4827 283.091C97.3452 283.5 96.1233 282.835 94.9447 282.999C94.0049 283.129 93.129 283.818 92.6539 284.803C92.0384 286.078 91.7882 287.525 92.3318 288.109C92.7795 288.588 94.1796 288.819 95.3524 288.448Z" fill="#E6E6E6"/>
<path d="M90.9739 285.711C89.9233 286.512 88.5723 286.715 87.3903 286.251C86.2083 285.788 85.8635 283.65 85.4055 282.258C86.4779 281.993 89.2015 282.178 89.8182 282.253C90.4349 282.327 91.0607 282.662 91.393 283.291C91.7242 283.921 91.6637 284.866 91.1612 285.302C91.1269 285.277 90.9739 285.711 90.9739 285.711Z" fill="#E6E6E6"/>
<path d="M85.5688 288.026C86.2917 286.974 88.0732 286.211 89.189 286.456C90.3047 286.7 91.2571 287.625 91.6568 288.723C91.3622 289.575 90.5719 290.057 89.8068 290.123C89.0416 290.189 88.2868 289.917 87.5525 289.647C86.8193 289.378 86.0645 289.105 85.2993 289.171L85.5688 288.026Z" fill="#E6E6E6"/>
<path d="M107.55 281.211C107.55 281.211 108.743 282.496 108.98 284.285C109.218 286.075 106.513 288.217 106.513 288.217C106.513 288.217 104.505 288.991 103.091 287.485C101.677 285.978 101.677 285.978 101.677 285.978C101.677 285.978 105.988 281.149 107.366 281.596L107.55 281.211Z" fill="#E6E6E6"/>
<path d="M100.523 278.561C99.6109 281.27 100.148 285.311 102.159 286.291C104.169 287.27 106.892 284.818 107.804 282.108C108.716 279.4 107.117 278.511 105.107 277.532C103.097 276.552 101.436 275.851 100.523 278.561Z" fill="#E6E6E6"/>
<path d="M106.784 279.98C106.784 279.98 104.819 280.909 101.792 278.822C101.792 278.822 105.868 284.836 106.784 279.98Z" fill="#E6E6E6"/>
<path d="M105.532 278.911C105.532 278.911 103.81 277.856 103.549 278.76C103.549 278.76 102.031 278.085 102.443 277.386C102.856 276.689 105.532 278.911 105.532 278.911Z" fill="#E6E6E6"/>
<g opacity="0.2">
<path d="M106.784 279.98C106.784 279.98 104.819 280.909 101.792 278.822C101.792 278.822 105.868 284.836 106.784 279.98Z" fill="#FAFAFA"/>
</g>
<g opacity="0.2">
<path d="M105.532 278.911C105.532 278.911 103.81 277.856 103.549 278.76C103.549 278.76 102.031 278.085 102.443 277.386C102.856 276.689 105.532 278.911 105.532 278.911Z" fill="#FAFAFA"/>
</g>
<path d="M105.4 288.454C104.415 289.492 102.907 289.656 101.709 289.017C100.512 288.378 99.6316 287.03 99.2296 285.53C98.8276 284.031 98.8721 282.394 99.1771 280.862C99.2559 280.465 99.4797 279.483 99.9445 279.491C100.372 279.498 100.444 280.244 100.546 280.618C100.842 281.694 101.182 282.723 101.657 283.705C102.118 284.656 102.669 285.543 103.297 286.343C103.474 286.568 105.226 288.638 105.4 288.454Z" fill="#E6E6E6"/>
<path d="M97.9608 279.616C97.2813 280.6 97.0735 282.025 97.4332 283.228C97.6696 284.018 98.1207 284.687 98.5855 285.314C98.9098 285.749 99.3518 286.213 99.8188 286.053C100.324 285.881 100.476 285.124 100.529 284.498C100.614 283.532 100.676 282.565 100.716 281.594C100.75 280.799 100.971 279.529 100.771 278.771C100.584 278.056 100.015 278.228 99.3952 278.467C98.8413 278.679 98.3331 279.076 97.9608 279.616Z" fill="#E6E6E6"/>
<g opacity="0.2">
<path d="M105.267 286.717C106.076 286.971 106.995 286.601 107.515 285.813C107.899 285.23 108.323 283.55 107.666 283.073C106.968 284.447 106.349 285.701 105.267 286.717Z" fill="#FAFAFA"/>
</g>
<g opacity="0.2">
<path d="M99.9011 284.657C99.2136 284.12 98.7762 283.147 98.7773 282.16C98.7773 281.616 99.5893 279.131 99.9433 280.432C100.059 280.857 99.7355 281.96 99.7263 282.45C99.7138 283.191 99.772 283.934 99.9011 284.657Z" fill="#FAFAFA"/>
</g>
<g opacity="0.2">
<path d="M102.383 287.295C101.648 287.676 100.71 287.36 100.245 286.577C100.198 287.097 101.381 287.986 101.745 288.275C102.692 289.028 103.376 288.679 104.516 288.546C104.516 288.546 102.843 288.246 102.383 287.295Z" fill="#FAFAFA"/>
</g>
<path d="M93.3323 327.689L93.7423 326.065L94.2961 323.878L94.9368 321.325L100.06 301.03L100.7 295.205L101.269 290.038L101.387 288.965L101.705 289.014L101.71 289.02L102.033 289.069L102.024 289.162L101.91 290.174L101.306 295.697L100.81 300.198L100.7 301.188L100.66 301.347L94.9334 324.015L94.287 326.559L93.9912 327.739L93.5824 329.353L93.3323 327.689Z" fill="#E0E0E0"/>
<path d="M100.192 300.792L100.569 301.431C101.261 300.839 101.966 299.992 102.78 299.013C104.04 297.497 105.468 295.781 107.305 294.472L106.974 293.798C105.066 295.156 103.608 296.91 102.321 298.459C101.526 299.413 100.841 300.238 100.192 300.792Z" fill="#E0E0E0"/>
<path d="M101.112 295.568C100.342 294.992 99.7549 294.072 99.4911 293.029C99.193 291.843 99.3095 290.571 99.4283 289.341C100.416 290.134 101.745 289.932 102.833 290.505C103.699 290.961 104.367 291.93 104.581 293.039C104.857 294.476 104.743 295.946 104.081 296.313C103.537 296.612 102.142 296.337 101.112 295.568Z" fill="#E6E6E6"/>
<path d="M105.966 294.502C106.776 295.638 108.016 296.312 109.26 296.287C110.504 296.262 111.355 294.34 112.133 293.172C111.173 292.54 108.524 291.753 107.917 291.606C107.309 291.459 106.629 291.557 106.158 292.041C105.688 292.526 105.515 293.451 105.889 294.044C105.925 294.032 105.966 294.502 105.966 294.502Z" fill="#E6E6E6"/>
<path d="M110.566 298.627C110.132 297.365 108.617 296.005 107.49 295.844C106.364 295.684 105.227 296.23 104.578 297.139C104.652 298.058 105.289 298.797 106.004 299.131C106.719 299.465 107.507 299.472 108.274 299.473C109.042 299.474 109.829 299.481 110.545 299.814L110.566 298.627Z" fill="#E6E6E6"/>
<path d="M84.4201 279.627C84.4201 279.627 83.1102 280.734 82.6991 282.478C82.288 284.222 84.765 286.732 84.765 286.732C84.765 286.732 86.6836 287.784 88.2344 286.487C89.7852 285.19 89.7852 285.19 89.7852 285.19C89.7852 285.19 85.9755 279.786 84.5629 280.035L84.4201 279.627Z" fill="#E6E6E6"/>
<path d="M91.6571 277.988C92.2978 280.807 91.3705 284.745 89.2783 285.433C87.1862 286.122 84.7217 283.301 84.0811 280.482C83.4393 277.662 85.1134 277.007 87.2056 276.317C89.2977 275.627 91.0153 275.168 91.6571 277.988Z" fill="#E6E6E6"/>
<path d="M85.3018 278.513C85.3018 278.513 87.1632 279.712 90.3722 278.067C90.3722 278.067 85.7357 283.464 85.3018 278.513Z" fill="#E6E6E6"/>
<path d="M86.6482 277.628C86.6482 277.628 88.4617 276.824 88.6318 277.758C88.6318 277.758 90.2055 277.302 89.8641 276.551C89.5226 275.8 86.6482 277.628 86.6482 277.628Z" fill="#E6E6E6"/>
<g opacity="0.2">
<path d="M85.3018 278.513C85.3018 278.513 87.1632 279.712 90.3722 278.067C90.3722 278.067 85.7357 283.464 85.3018 278.513Z" fill="#FAFAFA"/>
</g>
<g opacity="0.2">
<path d="M86.6482 277.628C86.6482 277.628 88.4617 276.824 88.6318 277.758C88.6318 277.758 90.2055 277.302 89.8641 276.551C89.5226 275.8 86.6482 277.628 86.6482 277.628Z" fill="#FAFAFA"/>
</g>
<path d="M85.8477 287.124C86.7247 288.294 88.2059 288.669 89.4575 288.205C90.7092 287.74 91.7141 286.526 92.26 285.093C92.8047 283.66 92.9212 282.03 92.7682 280.465C92.7282 280.06 92.6026 279.053 92.1401 278.995C91.7164 278.941 91.5714 279.672 91.432 280.03C91.0335 281.056 90.595 282.03 90.0274 282.938C89.4769 283.818 88.8431 284.622 88.1408 285.326C87.9444 285.523 86.003 287.33 85.8477 287.124Z" fill="#E6E6E6"/>
<path d="M94.0998 279.399C94.6788 280.472 94.7462 281.916 94.2711 283.061C93.9593 283.812 93.4466 284.413 92.9224 284.968C92.5581 285.354 92.0739 285.752 91.6251 285.528C91.1409 285.286 91.0644 284.513 91.0712 283.882C91.0815 282.912 91.1146 281.941 91.1694 280.972C91.214 280.178 91.118 278.885 91.3898 278.159C91.6456 277.477 92.1938 277.728 92.7865 278.052C93.3164 278.344 93.7823 278.809 94.0998 279.399Z" fill="#E6E6E6"/>
<g opacity="0.2">
<path d="M86.1503 285.417C85.3224 285.556 84.4453 285.057 84.0068 284.202C83.6825 283.569 83.4244 281.84 84.1244 281.46C84.6817 282.923 85.1739 284.256 86.1503 285.417Z" fill="#FAFAFA"/>
</g>
<g opacity="0.2">
<path d="M91.6797 284.131C92.4151 283.694 92.9439 282.791 93.0387 281.81C93.0912 281.269 92.5282 278.687 92.0486 279.929C91.8921 280.336 92.1057 281.476 92.0668 281.966C92.0086 282.702 91.8784 283.43 91.6797 284.131Z" fill="#FAFAFA"/>
</g>
<g opacity="0.2">
<path d="M88.9573 286.399C89.6494 286.88 90.6132 286.7 91.15 285.987C91.1454 286.511 89.8835 287.226 89.4941 287.461C88.4811 288.076 87.8347 287.632 86.7156 287.338C86.7156 287.338 88.408 287.279 88.9573 286.399Z" fill="#FAFAFA"/>
</g>
<path d="M95.0887 339.455L89.2714 300.435L89.1321 288.21L89.783 288.199L89.9212 300.369L95.8253 340.058L95.0887 339.455Z" fill="#E0E0E0"/>
<path d="M89.8138 300.112L89.3764 300.693C88.746 300.007 88.1305 299.068 87.4167 297.978C86.3135 296.295 85.0631 294.388 83.3672 292.83L83.7623 292.207C85.5233 293.826 86.8012 295.774 87.9283 297.493C88.6238 298.554 89.2245 299.47 89.8138 300.112Z" fill="#E0E0E0"/>
<path d="M89.4117 294.795C90.2328 294.332 90.9054 293.5 91.2686 292.501C91.6808 291.366 91.6888 290.087 91.6911 288.848C90.6336 289.496 89.3317 289.106 88.1966 289.521C87.291 289.852 86.5327 290.719 86.2129 291.791C85.7984 293.179 85.7676 294.656 86.3899 295.113C86.9004 295.49 88.3131 295.414 89.4117 294.795Z" fill="#E6E6E6"/>
<path d="M84.6953 293.05C83.7805 294.064 82.4821 294.555 81.2499 294.356C80.0177 294.156 79.3587 292.128 78.7009 290.857C79.7162 290.365 82.4239 289.958 83.0417 289.898C83.6595 289.837 84.3253 290.031 84.7455 290.579C85.1658 291.127 85.2469 292.07 84.8175 292.607C84.7821 292.588 84.6953 293.05 84.6953 293.05Z" fill="#E6E6E6"/>
<path d="M79.7242 296.496C80.2781 295.304 81.9168 294.168 83.0508 294.168C84.1848 294.167 85.2595 294.87 85.8168 295.865C85.6535 296.766 84.9477 297.411 84.2054 297.641C83.462 297.872 82.6797 297.768 81.918 297.661C81.1563 297.554 80.3728 297.449 79.6294 297.679L79.7242 296.496Z" fill="#E6E6E6"/>
<path d="M97.4753 315.516H90.6473C90.1357 315.503 89.6789 315.899 89.5258 316.487C88.9651 318.618 87.7717 324.223 87.7717 333.051C87.7717 342.75 89.8741 355.624 90.5354 359.427C90.6461 360.068 91.1132 360.528 91.6568 360.533H96.411C96.9545 360.528 97.4216 360.068 97.5324 359.427C98.1936 355.624 100.296 342.748 100.296 333.051C100.296 324.223 99.1015 318.618 98.5419 316.487C98.3923 315.924 97.9652 315.535 97.4753 315.516Z" fill="#F0F0F0"/>
<path d="M285.5 586.72C407.788 586.72 506.921 579.755 506.921 571.162C506.921 562.57 407.788 555.604 285.5 555.604C163.213 555.604 64.0789 562.57 64.0789 571.162C64.0789 579.755 163.213 586.72 285.5 586.72Z" fill="#F5F5F5"/>
<path d="M137.934 517.686C137.546 517.656 137.243 517.26 137.252 516.788C138.097 476.406 139.829 410.162 139.919 409.8C140.034 409.335 140.441 409.083 140.826 409.209C141.211 409.348 141.432 409.835 141.319 410.3C141.297 410.389 139.549 476.862 138.712 516.833C138.703 517.317 138.367 517.7 137.964 517.689C137.954 517.688 137.944 517.686 137.934 517.686Z" fill="#263238"/>
<path d="M133.423 382.839C133.704 385.95 136.799 396.732 139.384 396.394C141.969 396.056 143.065 384.724 142.784 381.613C142.503 378.504 140.179 376.256 137.595 376.594C135.009 376.934 133.142 379.73 133.423 382.839Z" fill="#407BFF"/>
<path d="M145.969 416.851C145.688 413.74 142.593 402.959 140.008 403.297C137.422 403.635 136.326 414.966 136.607 418.077C136.888 421.186 139.212 423.434 141.796 423.096C144.383 422.758 146.251 419.963 145.969 416.851Z" fill="#407BFF"/>
<path d="M125.562 407.394C128.147 407.056 137.108 403.332 136.828 400.222C136.547 397.112 127.129 395.793 124.544 396.131C121.959 396.469 120.092 399.265 120.372 402.375C120.653 405.485 122.976 407.732 125.562 407.394Z" fill="#407BFF"/>
<path d="M153.831 392.298C151.245 392.636 142.284 396.359 142.565 399.47C142.847 402.581 152.264 403.9 154.85 403.56C157.435 403.222 159.302 400.426 159.021 397.317C158.74 394.207 156.415 391.96 153.831 392.298Z" fill="#407BFF"/>
<path d="M125.265 393.158C127.292 395.119 135.817 400.11 137.446 397.671C139.076 395.233 133.191 386.288 131.165 384.327C129.138 382.368 126.175 382.755 124.545 385.194C122.917 387.632 123.239 391.197 125.265 393.158Z" fill="#407BFF"/>
<path d="M154.126 406.534C152.099 404.573 143.574 399.582 141.945 402.021C140.316 404.459 146.2 413.404 148.227 415.364C150.254 417.324 153.217 416.936 154.846 414.499C156.477 412.06 156.153 408.493 154.126 406.534Z" fill="#407BFF"/>
<path d="M134.138 417.208C135.767 414.769 139.916 404.513 137.889 402.552C135.861 400.591 128.428 407.671 126.799 410.11C125.169 412.549 125.492 416.115 127.519 418.074C129.545 420.035 132.509 419.647 134.138 417.208Z" fill="#407BFF"/>
<path d="M145.256 382.483C143.627 384.922 139.478 395.179 141.505 397.14C143.532 399.099 150.967 392.02 152.595 389.581C154.225 387.142 153.902 383.577 151.875 381.618C149.849 379.657 146.884 380.046 145.256 382.483Z" fill="#407BFF"/>
<g opacity="0.6">
<path d="M133.423 382.839C133.704 385.95 136.799 396.732 139.384 396.394C141.969 396.056 143.065 384.724 142.784 381.613C142.503 378.504 140.179 376.256 137.595 376.594C135.009 376.934 133.142 379.73 133.423 382.839Z" fill="white"/>
<path d="M145.969 416.851C145.688 413.74 142.593 402.959 140.008 403.297C137.422 403.635 136.326 414.966 136.607 418.077C136.888 421.186 139.212 423.434 141.796 423.096C144.383 422.758 146.251 419.963 145.969 416.851Z" fill="white"/>
<path d="M125.562 407.394C128.147 407.056 137.108 403.332 136.828 400.222C136.547 397.112 127.129 395.793 124.544 396.131C121.959 396.469 120.092 399.265 120.372 402.375C120.653 405.485 122.976 407.732 125.562 407.394Z" fill="white"/>
<path d="M153.831 392.298C151.245 392.636 142.284 396.359 142.565 399.47C142.847 402.581 152.264 403.9 154.85 403.56C157.435 403.222 159.302 400.426 159.021 397.317C158.74 394.207 156.415 391.96 153.831 392.298Z" fill="white"/>
<path d="M125.265 393.158C127.292 395.119 135.817 400.11 137.446 397.671C139.076 395.233 133.191 386.288 131.165 384.327C129.138 382.368 126.175 382.755 124.545 385.194C122.917 387.632 123.239 391.197 125.265 393.158Z" fill="white"/>
<path d="M154.126 406.534C152.099 404.573 143.574 399.582 141.945 402.021C140.316 404.459 146.2 413.404 148.227 415.364C150.254 417.324 153.217 416.936 154.846 414.499C156.477 412.06 156.153 408.493 154.126 406.534Z" fill="white"/>
<path d="M134.138 417.208C135.767 414.769 139.916 404.513 137.889 402.552C135.861 400.591 128.428 407.671 126.799 410.11C125.169 412.549 125.492 416.115 127.519 418.074C129.545 420.035 132.509 419.647 134.138 417.208Z" fill="white"/>
<path d="M145.256 382.483C143.627 384.922 139.478 395.179 141.505 397.14C143.532 399.099 150.967 392.02 152.595 389.581C154.225 387.142 153.902 383.577 151.875 381.618C149.849 379.657 146.884 380.046 145.256 382.483Z" fill="white"/>
</g>
<path d="M134.153 400.57C134.485 404.254 137.237 406.916 140.299 406.514C143.361 406.114 145.573 402.803 145.239 399.119C144.906 395.436 142.154 392.774 139.093 393.176C136.032 393.577 133.821 396.887 134.153 400.57Z" fill="#407BFF"/>
<path d="M134.701 488.097C128.267 488.267 117.258 481.116 112.927 474.136C108.531 467.053 120.858 471.414 119.58 465.845C118.301 460.276 103.126 464.449 100.304 456.476C97.4822 448.502 108.443 450.3 107.998 446.22C107.554 442.141 96.2043 443.01 92.5396 434.537C88.875 426.064 98.8709 430.782 97.2949 427.271C95.719 423.759 83.1684 409.001 88.3988 405.897C93.628 402.794 105.397 418.169 109.332 419.876C113.266 421.583 114.159 410.93 119.285 416.006C124.412 421.083 120.639 443.357 126.666 446.272C131.155 448.445 129.223 438.258 134.392 440.812C143.441 445.283 137.314 488.028 134.701 488.097Z" fill="#407BFF"/>
<g opacity="0.2">
<path d="M134.701 488.097C128.267 488.267 117.258 481.116 112.927 474.136C108.531 467.053 120.858 471.414 119.58 465.845C118.301 460.276 103.126 464.449 100.304 456.476C97.4822 448.502 108.443 450.3 107.998 446.22C107.554 442.141 96.2043 443.01 92.5396 434.537C88.875 426.064 98.8709 430.782 97.2949 427.271C95.719 423.759 83.1684 409.001 88.3988 405.897C93.628 402.794 105.397 418.169 109.332 419.876C113.266 421.583 114.159 410.93 119.285 416.006C124.412 421.083 120.639 443.357 126.666 446.272C131.155 448.445 129.223 438.258 134.392 440.812C143.441 445.283 137.314 488.028 134.701 488.097Z" fill="white"/>
</g>
<path d="M143.948 478.274C144.055 478.491 143.093 479.589 146.27 479.747C154.093 480.135 167.926 479.5 173.121 470.941C180.539 458.722 163.432 459.844 165.095 453.105C166.759 446.367 185.136 451.87 188.723 442.251C192.31 432.631 178.944 434.51 179.563 429.561C180.184 424.611 194.207 431.024 198.829 420.821C203.451 410.617 191.2 416.076 193.185 411.848C195.17 407.622 210.722 390.022 204.421 386.1C198.121 382.177 183.507 400.549 178.688 402.515C173.868 404.48 172.754 386.461 166.419 392.491C160.084 398.522 164.241 425.722 156.854 429.099C151.35 431.615 154.353 421.866 147.562 422.24C138.337 422.75 135.304 460.889 143.948 478.274Z" fill="#407BFF"/>
<g opacity="0.3">
<path d="M143.948 478.274C144.055 478.491 143.093 479.589 146.27 479.747C154.093 480.135 167.926 479.5 173.121 470.941C180.539 458.722 163.432 459.844 165.095 453.105C166.759 446.367 185.136 451.87 188.723 442.251C192.31 432.631 178.944 434.51 179.563 429.561C180.184 424.611 194.207 431.024 198.829 420.821C203.451 410.617 191.2 416.076 193.185 411.848C195.17 407.622 210.722 390.022 204.421 386.1C198.121 382.177 183.507 400.549 178.688 402.515C173.868 404.48 172.754 386.461 166.419 392.491C160.084 398.522 164.241 425.722 156.854 429.099C151.35 431.615 154.353 421.866 147.562 422.24C138.337 422.75 135.304 460.889 143.948 478.274Z" fill="white"/>
</g>
<path d="M138.085 511.584C138.071 511.583 138.057 511.581 138.043 511.58C137.764 511.54 137.565 511.235 137.6 510.899C144.021 447.673 174.292 421.973 174.596 421.722C174.828 421.532 175.144 421.601 175.303 421.88C175.461 422.157 175.403 422.539 175.171 422.73C174.87 422.979 144.971 448.401 138.609 511.047C138.577 511.366 138.348 511.597 138.085 511.584Z" fill="#263238"/>
<path d="M167.708 430.506C167.502 430.496 167.312 430.333 167.245 430.084C167.158 429.762 167.304 429.418 167.571 429.313C167.76 429.239 172.267 427.524 179.653 429.411C179.928 429.481 180.104 429.806 180.045 430.136C179.987 430.467 179.717 430.68 179.442 430.609C172.345 428.798 167.93 430.462 167.887 430.478C167.827 430.499 167.767 430.509 167.708 430.506Z" fill="#263238"/>
<path d="M162.113 438.185C161.843 438.171 161.628 437.908 161.625 437.579C161.469 418.457 170.669 403.518 170.762 403.369C170.93 403.1 171.25 403.045 171.475 403.248C171.7 403.452 171.744 403.835 171.576 404.106C171.485 404.251 162.491 418.875 162.644 437.568C162.646 437.906 162.421 438.182 162.14 438.186C162.131 438.186 162.122 438.185 162.113 438.185Z" fill="#263238"/>
<path d="M153.098 454.369C152.97 454.363 152.843 454.299 152.748 454.177C152.555 453.932 152.564 453.545 152.769 453.311C152.837 453.234 159.648 445.658 168.567 449.503C168.831 449.617 168.969 449.967 168.874 450.286C168.779 450.603 168.488 450.771 168.223 450.656C159.886 447.057 153.53 454.129 153.468 454.202C153.365 454.32 153.23 454.375 153.098 454.369Z" fill="#263238"/>
<path d="M148.386 465.66C148.196 465.65 148.018 465.513 147.939 465.289C147.796 464.888 144.461 455.274 146.299 441.576C146.345 441.244 146.595 441.01 146.883 441.071C147.16 441.124 147.349 441.437 147.304 441.771C145.516 455.099 148.841 464.713 148.876 464.808C148.985 465.118 148.865 465.478 148.607 465.61C148.534 465.647 148.459 465.662 148.386 465.66Z" fill="#263238"/>
<path d="M138.289 534.169C138.026 534.156 137.811 533.898 137.803 533.577L137.143 516.83C135.196 461.149 103.45 423.277 103.129 422.902C102.928 422.666 102.924 422.278 103.12 422.037C103.318 421.795 103.639 421.791 103.84 422.026C104.163 422.405 136.194 460.599 138.159 516.786L138.819 533.539C138.828 533.877 138.608 534.159 138.327 534.172C138.314 534.17 138.302 534.169 138.289 534.169Z" fill="#263238"/>
<path d="M116.222 443.819C116.195 443.817 116.166 443.813 116.139 443.806C116.094 443.795 116.04 443.769 115.991 443.737L115.826 443.658C111.67 441.58 107.027 440.503 102.754 440.616C102.468 440.632 102.24 440.356 102.234 440.017C102.227 439.679 102.45 439.4 102.731 439.392C107.143 439.277 111.933 440.386 116.217 442.527L116.386 442.611C116.417 442.625 116.445 442.641 116.472 442.66C116.672 442.783 116.788 443.055 116.74 443.331C116.688 443.63 116.466 443.831 116.222 443.819Z" fill="#263238"/>
<path d="M120.712 450.989C120.704 450.989 120.695 450.988 120.687 450.987C120.407 450.958 120.2 450.658 120.225 450.323C121.454 433.889 114.38 420.367 114.308 420.232C114.158 419.948 114.226 419.569 114.463 419.387C114.701 419.206 115.014 419.289 115.165 419.573C115.238 419.71 122.5 433.57 121.238 450.433C121.214 450.76 120.981 451.003 120.712 450.989Z" fill="#263238"/>
<path d="M125.344 460.51C125.22 460.504 125.097 460.443 125.003 460.33C124.952 460.267 119.797 454.146 112.253 456.564C111.98 456.653 111.702 456.455 111.63 456.13C111.558 455.803 111.72 455.467 111.991 455.381C120.123 452.77 125.503 459.195 125.727 459.47C125.925 459.71 125.923 460.096 125.723 460.335C125.618 460.458 125.481 460.517 125.344 460.51Z" fill="#263238"/>
<path d="M131.224 476.201C131.151 476.197 131.078 476.175 131.009 476.132C130.76 475.976 130.664 475.606 130.794 475.306C130.83 475.224 134.323 467.009 133.527 455.157C133.504 454.82 133.712 454.525 133.993 454.499C134.275 454.457 134.518 454.721 134.541 455.059C135.364 467.282 131.846 475.529 131.697 475.875C131.602 476.09 131.415 476.209 131.224 476.201Z" fill="#263238"/>
<path d="M166.911 536.805C166.911 556.335 159.61 572.175 137.5 572.175C116.398 572.175 108.089 556.335 108.089 536.805C108.089 529.439 109.97 522.587 113.171 516.922H161.829C165.03 522.587 166.911 529.439 166.911 536.805Z" fill="#407BFF"/>
<path opacity="0.7" d="M166.911 536.805C166.911 556.335 159.61 572.175 137.5 572.175C116.398 572.175 108.089 556.335 108.089 536.805C108.089 529.439 109.97 522.587 113.171 516.922H161.829C165.03 522.587 166.911 529.439 166.911 536.805Z" fill="white"/>
<path d="M335.863 554.908L347.238 552.91L344.365 520.894L332.99 522.892L335.863 554.908Z" fill="#E8BFBF"/>
<path d="M355.983 553.389C356.971 553.301 357.905 552.814 358.633 552.004C358.943 551.533 359.041 550.908 358.895 550.334C358.83 549.974 358.614 549.68 358.324 549.559C356.804 548.906 352.644 552.594 352.179 553.01C352.089 553.098 352.05 553.24 352.079 553.374C352.117 553.503 352.219 553.59 352.333 553.591C353.552 553.657 354.774 553.59 355.983 553.389ZM357.583 550.18C357.754 550.129 357.934 550.136 358.101 550.196C358.221 550.242 358.31 550.361 358.337 550.509C358.43 550.889 358.368 551.3 358.168 551.614C357.583 552.491 355.726 552.985 353.136 552.984C354.485 551.742 356 550.787 357.617 550.159L357.583 550.18Z" fill="#407BFF"/>
<path d="M352.396 553.606L352.489 553.554C353.751 552.554 356.027 549.068 355.6 547.562C355.469 547.226 355.231 546.794 354.469 546.845C353.917 546.856 353.394 547.15 353.032 547.651C351.8 549.352 352.044 553.101 352.048 553.253C352.044 553.369 352.086 553.479 352.162 553.549C352.228 553.612 352.315 553.632 352.396 553.606ZM354.309 547.533L354.461 547.448C354.963 547.423 355.021 547.647 355.037 547.723C355.306 548.634 353.797 551.312 352.541 552.548C352.424 550.972 352.729 549.392 353.409 548.038C353.652 547.733 353.981 547.547 354.332 547.52L354.309 547.533Z" fill="#407BFF"/>
<path d="M346.075 547.242L335.988 550.134C335.533 550.247 335.224 550.755 335.273 551.31L335.598 568.872C335.739 570.103 336.682 570.963 337.704 570.794C337.775 570.781 337.846 570.765 337.914 570.744C342.283 569.435 344.346 568.542 349.902 567C353.306 566.058 364.094 565.079 368.514 562.71C372.932 560.343 371.211 554.954 369.196 555.463C362.714 557.14 354.385 553.802 349.654 548.719C349.012 548.341 346.767 547.026 346.075 547.242Z" fill="#263238"/>
<path opacity="0.2" d="M344.365 520.894L345.845 537.396L334.472 539.409L332.979 522.91L344.365 520.894Z" fill="black"/>
<path d="M350.441 530.604L329.395 535.332C329.395 535.332 319.175 517.778 317.246 505.312C315.239 492.332 317.384 448.141 317.246 447.554C311.293 423.376 295.12 360.716 287.31 337.66C282.985 324.882 279.95 316.28 279.95 316.28L282.137 315.689L299.316 307.222L311.834 310.061C311.834 310.061 349.878 402.616 353.866 437.435C356.842 463.432 350.441 530.604 350.441 530.604Z" fill="#407BFF"/>
<path opacity="0.3" d="M350.441 530.604L329.395 535.332C329.395 535.332 319.175 517.778 317.246 505.312C315.239 492.332 317.384 448.141 317.246 447.554C311.293 423.376 295.12 360.716 287.31 337.66C282.985 324.882 279.95 316.28 279.95 316.28L282.137 315.689L299.316 307.222L311.834 310.061C311.834 310.061 349.878 402.616 353.866 437.435C356.842 463.432 350.441 530.604 350.441 530.604Z" fill="white"/>
<path opacity="0.2" d="M312.289 426.615C306.336 402.436 294.329 365.757 286.517 342.7L281.343 320.73L280.348 316.504L282.16 320.496L302.549 374.833C311.546 395.638 312.426 427.201 312.289 426.615Z" fill="black"/>
<path d="M219.917 547.368L230.055 552.507L240.874 524.578L230.737 519.439L219.917 547.368Z" fill="#E8BFBF"/>
<path d="M236.66 558.354C237.464 558.958 238.414 559.216 239.356 559.086C239.817 558.933 240.186 558.517 240.344 557.974C240.464 557.652 240.434 557.278 240.267 556.988C239.401 555.45 234.456 555.47 233.902 555.474C233.791 555.481 233.694 555.563 233.653 555.687C233.622 555.813 233.66 555.949 233.748 556.027C234.657 556.908 235.632 557.687 236.66 558.354ZM239.403 556.963C239.558 557.04 239.694 557.166 239.796 557.329C239.867 557.445 239.88 557.599 239.83 557.73C239.724 558.087 239.483 558.361 239.18 558.468C238.317 558.747 236.651 557.866 234.652 556.104C236.277 556.063 237.897 556.356 239.439 556.97L239.403 556.963Z" fill="#407BFF"/>
<path d="M233.789 556.082L233.886 556.106C235.331 556.192 238.725 555.048 239.103 553.594C239.16 553.245 239.178 552.749 238.566 552.271C238.134 551.904 237.593 551.775 237.078 551.916C235.327 552.392 233.755 555.453 233.685 555.573C233.628 555.659 233.61 555.773 233.635 555.879C233.655 555.973 233.714 556.047 233.789 556.082ZM238.118 552.694L238.276 552.731C238.676 553.054 238.616 553.266 238.592 553.336C238.371 554.222 235.948 555.264 234.398 555.364C235.049 554.068 236.025 553.055 237.186 552.472C237.518 552.401 237.859 552.483 238.142 552.7L238.118 552.694Z" fill="#407BFF"/>
<path d="M231.898 546.87L222.75 542.244C222.347 542.022 221.869 542.204 221.646 542.665L213.649 556.445C213.179 557.491 213.503 558.796 214.372 559.362C214.432 559.402 214.494 559.436 214.558 559.467C218.547 561.426 220.558 562.139 225.572 564.728C228.644 566.315 237.434 572.896 241.958 574.072C246.481 575.25 247.685 569.917 245.889 568.939C240.095 565.826 235.233 557.584 233.967 550.444C233.649 549.717 232.533 547.175 231.898 546.87Z" fill="#263238"/>
<path opacity="0.2" d="M241.317 524.906L235.452 539.135L225.416 533.716L231.271 519.482L241.317 524.906Z" fill="black"/>
<path d="M243.429 540.413L223.238 527.463C223.238 527.463 219.367 510.169 223.238 499.137C230.689 477.906 250.072 446.69 250.203 446.102C255.375 421.664 264.448 354.742 267.547 330.124C269.268 316.483 270.278 313.54 270.278 313.54L272.408 314.379L303.303 314.453C303.303 314.453 309.131 370.742 286.794 457.895C281.236 479.579 271.925 497.609 256.605 521.999C250.787 531.26 243.429 540.413 243.429 540.413Z" fill="#407BFF"/>
<path opacity="0.3" d="M243.429 540.413L223.238 527.463C223.238 527.463 219.367 510.169 223.238 499.137C230.689 477.906 250.072 446.69 250.203 446.102C255.375 421.664 264.448 354.742 267.547 330.124C269.268 316.483 270.278 313.54 270.278 313.54L272.408 314.379L303.303 314.453C303.303 314.453 309.131 370.742 286.794 457.895C281.236 479.579 271.925 497.609 256.605 521.999C250.787 531.26 243.429 540.413 243.429 540.413Z" fill="white"/>
<path d="M330.673 268.46C330.899 264.286 333.2 258.91 335.185 256.424C335.822 255.63 338.231 254.421 339.595 253.352C346.303 248.056 359.729 241.452 359.729 241.452L363.872 245.798C363.872 245.798 355.694 255.308 350.829 259.869C349.873 260.765 348.766 261.853 347.598 263.003C345.483 265.127 335.522 273.032 333.62 275.013L330.673 268.46Z" fill="#E8BFBF"/>
<path d="M371.541 238.994L363.878 245.806L359.578 241.997C359.578 241.997 361.332 239.308 363.135 237.225C363.927 236.31 364.354 235.05 364.364 233.73C364.379 231.699 364.634 229.343 365.551 227.614C365.574 227.574 365.585 227.533 365.607 227.505C367.268 224.494 371.152 225.399 371.938 228.884L373.045 233.798C373.48 235.739 372.884 237.801 371.541 238.994Z" fill="#E8BFBF"/>
<path d="M333.123 270.303L331.103 272.532C330.474 271.924 329.476 270.951 328.219 269.696C318.375 259.863 293.696 236.013 303.534 229.207C311.967 223.373 320.922 241.226 325.39 246.588C326.299 247.695 328.791 251.152 330.801 255.488C332.898 260.038 334.46 265.549 333.123 270.303Z" fill="#263238"/>
<path d="M330.795 253.353C327.302 256.426 324.319 260.336 322.075 264.786C323.693 271.24 327.769 276.856 332.909 279.538C335.725 271.674 337.037 263.22 336.479 254.683C334.696 254.222 332.577 253.815 330.795 253.353Z" fill="#263238"/>
<path d="M276.601 227.816C273.079 229.178 269.048 228.088 266.788 231.611C264.528 235.134 263.849 239.784 263.852 244.234C263.857 250.424 265.033 256.515 266.203 262.541C267.622 269.849 269.04 277.156 270.459 284.465C271.428 289.46 270.408 312.689 271.443 313.078C271.443 313.078 303.726 312.317 311.821 310.953C311.821 310.953 312.524 287.074 313.174 278.941C313.318 277.137 315.595 269.476 315.862 267.551C317.123 258.48 314.652 252.082 312.041 243.437C312.041 243.437 306.324 229.588 303.533 229.211C298.564 228.536 286.415 224.022 276.601 227.816Z" fill="#263238"/>
<path d="M275.242 239.275C275.128 238.469 269.399 224.543 263.908 234.277C256.265 247.824 255.75 264.834 255.75 264.834C255.75 264.834 251.053 281.374 254.326 284.987C257.599 288.599 261.128 290.924 263.416 288.875C265.702 286.827 267.186 282.733 267.186 282.733C267.186 282.733 277.25 253.448 275.242 239.275Z" fill="#263238"/>
<path d="M274.874 222.651C272.463 224.914 272.78 230.159 275.438 231.977C274.77 234.785 275.551 238.017 277.367 239.957C279.182 241.897 281.941 242.448 284.181 241.317C283.212 243.404 284.304 246.159 285.975 247.451C287.646 248.742 289.71 248.977 291.678 249.294C293.647 249.612 295.726 250.122 297.155 251.781C299.19 248.258 301.224 244.737 303.259 241.214C304.052 239.843 304.873 238.371 304.934 236.703C304.996 235.034 303.941 233.194 302.557 233.316C303.965 231.551 303.993 228.455 302.618 226.652C301.243 224.85 298.677 224.619 297.096 226.155C297.379 224.744 296.691 223.245 295.701 222.415C294.71 221.585 293.477 221.302 292.275 221.16L274.874 222.651Z" fill="#263238"/>
<path d="M278.536 204.719C280.125 211.731 282.052 224.658 278.198 229.768C278.198 229.768 289.102 235.021 296.851 245.563C300.458 241.347 300.083 236.611 298.979 233.147C298.122 230.464 296.283 228.471 294.083 227.347C289.84 225.178 289.803 220.15 290.509 215.332L278.536 204.719Z" fill="#E8BFBF"/>
<path opacity="0.2" d="M280.911 216.659L284.921 217.969C286.638 218.529 288.433 218.657 290.193 218.345C290.177 219.384 290.022 221.59 290.566 222.754C288.263 224.091 284.368 223.173 282.647 220.733C281.934 219.781 281.299 217.853 280.911 216.659Z" fill="black"/>
<path d="M270.753 198.75C274.998 209.528 276.604 214.196 283.138 217.626C292.983 222.812 303.027 214.154 301.539 202.069C300.202 191.199 293.481 175.398 283.032 175.342C275.565 175.254 269.452 182.463 269.379 191.448C269.36 193.976 269.829 196.476 270.753 198.75Z" fill="#E8BFBF"/>
<path d="M275.417 178.168C272.325 176.43 268.481 177.848 265.905 180.574C263.284 183.348 261.689 187.228 260.16 191.002C259.329 193.054 258.489 195.133 258.104 197.368C257.72 199.604 257.83 202.048 258.812 204.002C259.774 205.917 261.565 207.174 263.416 207.305C264.48 207.379 265.726 208.305 266.071 209.52C266.391 210.648 266.239 211.869 266.089 213.041C265.944 214.176 265.806 215.361 266.102 216.45C266.595 218.264 268.208 219.364 269.786 219.549C271.364 219.733 272.932 219.183 274.452 218.639C275.416 218.294 276.385 218.493 277.135 219.301C277.322 219.503 277.475 219.745 277.591 220.012C278.064 221.093 279.433 220.923 279.827 219.796C281.209 215.846 279.198 209.529 276.203 204.709C274.613 202.151 274.7 202.804 274.075 199.698C273.556 197.115 274.342 194.42 275.304 192.026C276.588 188.834 278.237 185.721 277.727 181.911C277.512 180.299 276.646 178.858 275.417 178.168Z" fill="#263238"/>
<path d="M271.021 209.775C272.43 211.578 274.374 212.635 276.43 212.713C279.157 212.784 279.849 209.654 278.532 206.985C277.344 204.577 274.493 201.651 272.024 202.813C269.555 203.977 269.304 207.529 271.021 209.775Z" fill="#E8BFBF"/>
<path d="M287.821 196.832C288.137 197.776 288.76 198.275 289.253 198.032C289.747 197.789 289.868 196.893 289.595 195.978C289.321 195.063 288.658 194.545 288.163 194.778C287.668 195.01 287.527 195.935 287.821 196.832Z" fill="#263238"/>
<path d="M296.18 192.504C296.487 193.451 297.118 193.947 297.604 193.707C298.089 193.466 298.218 192.568 297.945 191.652C297.672 190.737 297.009 190.219 296.521 190.45C296.035 190.68 295.876 191.609 296.18 192.504Z" fill="#263238"/>
<path d="M296.306 190.612L297.894 189.117C297.894 189.117 297.55 191.246 296.306 190.612Z" fill="#263238"/>
<path d="M294.01 194.523C295.95 196.827 297.411 197.249 299.512 198.832C299.451 201.077 297.695 201.592 297.695 201.592L294.01 194.523Z" fill="#ED847E"/>
<path d="M296.809 205.991C297.171 205.828 297.522 205.629 297.857 205.395C297.967 205.325 298.008 205.16 297.95 205.03C297.947 205.025 297.945 205.021 297.944 205.016C297.879 204.885 297.742 204.834 297.627 204.899C295.855 206.137 293.698 206.274 291.829 205.267C291.712 205.193 291.567 205.245 291.504 205.387C291.442 205.527 291.486 205.703 291.604 205.777C293.244 206.684 295.119 206.761 296.809 205.991Z" fill="#263238"/>
<path d="M287.51 189.351C287.498 189.608 287.351 189.828 287.144 189.897C284.954 190.678 283.982 194.023 283.977 194.05C283.891 194.361 283.612 194.528 283.354 194.424C283.096 194.319 282.956 193.984 283.042 193.674C283.127 193.547 284.188 189.711 286.856 188.752C287.117 188.664 287.389 188.841 287.468 189.153C287.496 189.214 287.51 189.282 287.51 189.351Z" fill="#263238"/>
<path d="M297.615 187.734C297.432 187.868 297.199 187.848 297.035 187.683C295.252 185.963 292.414 186.908 292.394 186.919C292.132 187.011 291.858 186.83 291.783 186.515C291.706 186.2 291.857 185.871 292.119 185.78C292.253 185.791 295.477 184.653 297.654 186.747C297.863 186.955 297.896 187.324 297.729 187.581C297.701 187.642 297.662 187.694 297.615 187.734Z" fill="#263238"/>
<path d="M287.964 194.936L289.553 193.451C289.553 193.451 289.193 195.575 287.964 194.936Z" fill="#263238"/>
<path d="M276.099 176.368C273.605 176.608 271.237 178.316 269.884 180.849C268.976 182.548 268.656 185.131 269.999 186.345C270.628 186.912 271.455 187.015 272.239 187.098C275.715 187.464 280 184.234 280 184.234C278.66 177.405 290.568 172.121 296.438 182.699C298.162 185.807 297.696 188.065 300.564 189.501C301.914 190.177 303.693 189.99 304.557 191.409C305.992 193.763 303.235 197.749 304.986 199.77C306.184 201.152 308.899 200.625 309.066 202.611C309.145 203.546 308.637 204.898 309.384 205.171C309.797 205.322 310.177 204.867 310.444 204.459C311.09 203.473 311.754 202.441 311.976 201.215C312.197 199.988 311.834 198.511 310.885 197.992C310.156 197.592 308.227 198.039 308.358 198.989C308.516 200.134 307.699 194.517 308.065 192.394C308.383 190.546 309.851 188.944 309.405 187.133C308.931 185.201 307.023 184.431 305.368 184.135C303.712 183.84 301.834 183.598 300.816 181.999C299.68 180.212 300.196 177.661 299.832 175.454C299.367 172.649 297.422 170.462 295.24 169.325C288.62 165.869 278.378 166.36 276.099 176.368Z" fill="#263238"/>
<path d="M294.904 213.03L272.07 226.832C264.562 231.369 261.166 242.038 264.234 251.45L275.246 285.241C278.313 294.651 286.835 299.709 294.908 296.907L319.463 288.387C328.665 285.196 333.591 273.18 330.095 262.453L317.362 223.381C313.866 212.655 303.461 207.859 294.904 213.03ZM291.131 271.063C286.04 273.46 280.293 270.439 278.297 264.315C276.301 258.191 278.812 251.282 283.903 248.885C288.994 246.487 294.739 249.507 296.735 255.631C298.731 261.755 296.222 268.665 291.131 271.063Z" fill="#407BFF"/>
<path d="M294.904 213.03L272.07 226.832C264.562 231.369 261.166 242.038 264.234 251.45L275.246 285.241C278.313 294.651 286.835 299.709 294.908 296.907L319.463 288.387C328.665 285.196 333.591 273.18 330.095 262.453L317.362 223.381C313.866 212.655 303.461 207.859 294.904 213.03ZM291.131 271.063C286.04 273.46 280.293 270.439 278.297 264.315C276.301 258.191 278.812 251.282 283.903 248.885C288.994 246.487 294.739 249.507 296.735 255.631C298.731 261.755 296.222 268.665 291.131 271.063Z" fill="#407BFF"/>
<path opacity="0.1" d="M330.1 262.459L317.359 223.388C313.868 212.651 303.462 207.856 294.909 213.029L288.275 217.04L283.819 219.727L272.078 226.831C264.568 231.369 261.167 242.038 264.231 251.451L275.244 285.242C278.319 294.656 286.839 299.706 294.91 296.912L319.471 288.39C321.48 287.688 323.288 286.567 324.848 285.121C326.06 284.014 327.116 282.717 328.002 281.273C331.222 276.058 332.233 269.022 330.1 262.459ZM291.125 271.061C286.04 273.466 280.292 270.44 278.295 264.308C276.297 258.19 278.811 251.276 283.908 248.885C288.992 246.48 294.74 249.506 296.738 255.624C298.725 261.757 296.222 268.658 291.125 271.061Z" fill="white"/>
<path d="M295.141 215.601L273.725 228.544C266.684 232.799 263.499 242.806 266.376 251.634L276.704 283.324C279.581 292.151 287.573 296.894 295.145 294.268L318.175 286.277C326.805 283.283 331.425 272.015 328.147 261.954L316.204 225.308C312.925 215.249 303.166 210.749 295.141 215.601ZM278.297 264.315C276.301 258.191 278.812 251.282 283.903 248.885C288.994 246.487 294.739 249.507 296.735 255.631C298.731 261.755 296.222 268.665 291.131 271.062C286.04 273.46 280.294 270.439 278.297 264.315Z" fill="#407BFF"/>
<path opacity="0.1" d="M295.141 215.601L273.725 228.544C266.684 232.799 263.499 242.806 266.376 251.634L276.704 283.324C279.581 292.151 287.573 296.894 295.145 294.268L318.175 286.277C326.805 283.283 331.425 272.015 328.147 261.954L316.204 225.308C312.925 215.249 303.166 210.749 295.141 215.601ZM278.297 264.315C276.301 258.191 278.812 251.282 283.903 248.885C288.994 246.487 294.739 249.507 296.735 255.631C298.731 261.755 296.222 268.665 291.131 271.062C286.04 273.46 280.294 270.439 278.297 264.315Z" fill="#407BFF"/>
<path d="M401.548 203.381L400.893 204.819L400.53 205.618L399.497 207.889L399.929 213.702C399.948 213.951 399.924 214.197 399.863 214.424C399.725 214.926 399.408 215.345 398.98 215.547L389.954 219.799C389.528 219.999 389.06 219.954 388.674 219.694C388.549 219.612 388.434 219.509 388.331 219.381L383.23 213.139L383.216 213.121L375.96 216.538L377.012 219.764L369.756 223.181L371.487 228.495L366.145 231.01C365.707 231.217 365.224 231.181 364.819 230.927C364.685 230.847 364.562 230.74 364.45 230.615L361.371 227.13L354.115 230.547L355.846 235.861L348.216 239.454L349.956 244.789C350.24 245.66 349.882 246.644 349.158 246.985L328.263 256.827L319.196 229.006L394.779 193.408L395.961 194.138L399.794 196.505C401.882 197.795 402.676 200.905 401.548 203.381Z" fill="#407BFF"/>
<g opacity="0.1">
<path d="M401.548 203.381L400.893 204.819L400.53 205.618L399.497 207.889L399.929 213.702C399.948 213.951 399.924 214.197 399.863 214.424C399.725 214.926 399.408 215.345 398.98 215.547L389.954 219.799C389.528 219.999 389.06 219.954 388.674 219.694C388.549 219.612 388.434 219.509 388.331 219.381L383.23 213.139L383.216 213.121L375.96 216.538L377.012 219.764L369.756 223.181L371.487 228.495L366.145 231.01C365.707 231.217 365.224 231.181 364.819 230.927C364.685 230.847 364.562 230.74 364.45 230.615L361.371 227.13L354.115 230.547L355.846 235.861L348.216 239.454L349.956 244.789C350.24 245.66 349.882 246.644 349.158 246.985L328.263 256.827L319.196 229.006L394.779 193.408L395.961 194.138L399.794 196.505C401.882 197.795 402.676 200.905 401.548 203.381Z" fill="white"/>
</g>
<path d="M401.251 200.214L320.442 238.272L318.087 231.131L395.134 194.844L398.967 197.211C400.426 198.113 401.264 198.95 401.251 200.214Z" fill="#407BFF"/>
<path opacity="0.1" d="M401.251 200.214L320.442 238.272L318.087 231.131L395.134 194.844L398.967 197.211C400.426 198.113 401.264 198.95 401.251 200.214Z" fill="black"/>
<path d="M399.655 205.575L398.873 207.688C398.861 207.723 398.855 207.761 398.858 207.798L399.296 213.554C399.312 213.764 399.297 213.973 399.256 214.169C399.242 214.237 399.199 214.29 399.145 214.316L389.332 218.963C389.279 218.988 389.219 218.985 389.17 218.948C389.075 218.877 388.985 218.79 388.905 218.691L383.292 211.906C383.24 211.843 383.163 211.824 383.094 211.857L375.128 215.63C375.033 215.675 374.986 215.803 375.024 215.917L375.971 218.809C376.009 218.923 375.962 219.051 375.868 219.097L369.074 222.314C368.979 222.36 368.933 222.488 368.97 222.602L370.606 227.595C370.644 227.709 370.597 227.837 370.502 227.882L365.518 230.242C365.467 230.267 365.409 230.264 365.361 230.231C365.256 230.159 365.158 230.071 365.068 229.969L361.424 225.928C361.371 225.87 361.297 225.854 361.232 225.885L353.318 229.634C353.223 229.679 353.176 229.807 353.214 229.921L354.89 235.038C354.928 235.152 354.881 235.279 354.786 235.325L324.4 249.712C324.305 249.757 324.199 249.701 324.161 249.588L321.129 240.431C321.092 240.317 321.138 240.187 321.233 240.142L400.415 202.646C400.569 202.573 400.719 202.762 400.65 202.944L399.655 205.575Z" fill="#407BFF"/>
<path opacity="0.1" d="M399.655 205.575L398.873 207.688C398.861 207.723 398.855 207.761 398.858 207.798L399.296 213.554C399.312 213.764 399.297 213.973 399.256 214.169C399.242 214.237 399.199 214.29 399.145 214.316L389.332 218.963C389.279 218.988 389.219 218.985 389.17 218.948C389.075 218.877 388.985 218.79 388.905 218.691L383.292 211.906C383.24 211.843 383.163 211.824 383.094 211.857L375.128 215.63C375.033 215.675 374.986 215.803 375.024 215.917L375.971 218.809C376.009 218.923 375.962 219.051 375.868 219.097L369.074 222.314C368.979 222.36 368.933 222.488 368.97 222.602L370.606 227.595C370.644 227.709 370.597 227.837 370.502 227.882L365.518 230.242C365.467 230.267 365.409 230.264 365.361 230.231C365.256 230.159 365.158 230.071 365.068 229.969L361.424 225.928C361.371 225.87 361.297 225.854 361.232 225.885L353.318 229.634C353.223 229.679 353.176 229.807 353.214 229.921L354.89 235.038C354.928 235.152 354.881 235.279 354.786 235.325L324.4 249.712C324.305 249.757 324.199 249.701 324.161 249.588L321.129 240.431C321.092 240.317 321.138 240.187 321.233 240.142L400.415 202.646C400.569 202.573 400.719 202.762 400.65 202.944L399.655 205.575Z" fill="black"/>
<path opacity="0.3" d="M283.299 245.913C276.913 248.921 273.765 257.586 276.268 265.27C278.772 272.953 285.98 276.741 292.366 273.734C298.753 270.726 301.9 262.06 299.397 254.377C296.893 246.693 289.687 242.905 283.299 245.913ZM291.131 271.063C286.04 273.46 280.294 270.439 278.297 264.315C276.301 258.191 278.812 251.282 283.903 248.885C288.994 246.487 294.739 249.507 296.735 255.631C298.731 261.755 296.222 268.665 291.131 271.063Z" fill="white"/>
<path opacity="0.1" d="M327.997 281.259C327.11 282.705 326.054 284 324.843 285.108L283.815 219.714L283.782 219.66C283.782 219.66 287.397 217.473 288.215 216.824C288.215 216.878 288.238 216.946 288.271 217.026C290.067 221.658 322.317 272.034 327.997 281.259Z" fill="white"/>
<path opacity="0.1" d="M322.07 287.174C321.812 287.322 309.858 291.699 309.858 291.699L296.534 270.468C299.979 266.402 301.271 260.109 299.396 254.368C296.892 246.684 289.686 242.889 283.299 245.901C282.737 246.157 282.21 246.468 281.705 246.818L269.918 228.032C269.918 228.032 280.28 222.089 281.424 221.225C281.727 223.86 322.07 286.62 322.07 287.174Z" fill="white"/>
<path d="M273.153 184.035C271.818 185.945 271.273 188.619 271.723 191.055C272.173 193.491 273.605 195.636 275.487 196.688C276.462 197.234 277.536 197.495 278.5 198.066C279.465 198.638 280.359 199.645 280.462 200.932C280.575 202.355 279.703 203.683 279.785 205.108C279.861 206.413 280.709 207.449 281.566 208.256C282.422 209.062 283.379 209.824 283.851 211.002C284.323 212.181 284.017 213.928 282.967 214.271C282.746 214.679 282.661 215.652 282.943 216.002C283.225 216.351 283.714 216.426 284.059 216.17C285.67 214.977 286.777 212.728 286.789 210.452C286.802 208.175 285.614 205.953 283.888 205.021C283.577 204.264 283.818 203.304 284.078 202.519C284.601 200.946 285.123 199.373 285.646 197.8C285.852 197.181 285.669 196.056 285.318 195.542C284.968 195.028 284.439 194.748 283.931 194.486L280.564 192.749C279.293 192.093 275.522 186.012 279.999 184.237C279.414 182.675 278.404 182.184 277.002 181.876C275.601 181.569 274.07 182.723 273.153 184.035Z" fill="#263238"/>
<path d="M279.262 177.493C279.15 179.093 279.038 180.691 278.927 182.29C280.042 180.086 282.109 175.814 282.038 175.981C281.161 176.554 280.14 176.919 279.262 177.493Z" fill="#263238"/>
<path d="M280.773 180.12C282.333 178.385 283.892 176.65 285.452 174.916C284.248 174.373 282.791 174.777 281.906 175.899C281.932 175.781 281.211 178.447 280.773 180.12Z" fill="#263238"/>
<path d="M271.263 310.112C265.171 319.205 267.198 326.179 258.792 342.278C269.394 351.734 281.019 353.301 295.47 351.95C297.177 348.31 298.04 344.511 299.749 340.87C302.198 344.526 304.165 347.6 306.613 351.256C314.185 349.829 323.18 347.269 329.168 342.626C323.88 335.33 320.597 326.216 317.211 318.172C315.624 314.4 316.288 312.812 312.077 307.865C298.66 308.61 285.355 309.004 271.939 309.749C272.294 309.772 270.909 310.09 271.263 310.112Z" fill="#263238"/>
<path d="M272.932 308.592L272.092 312.836C271.969 313.17 272.297 313.486 272.748 313.456L309.73 311.487C310.084 311.494 310.366 311.241 310.381 310.983L310.577 306.765C310.581 306.482 310.273 306.242 309.886 306.274L273.55 308.205C273.301 308.191 273.066 308.339 272.932 308.592Z" fill="#407BFF"/>
<path d="M272.932 308.592L272.092 312.836C271.969 313.17 272.297 313.486 272.748 313.456L309.73 311.487C310.084 311.494 310.366 311.241 310.381 310.983L310.577 306.765C310.581 306.482 310.273 306.242 309.886 306.274L273.55 308.205C273.301 308.191 273.066 308.339 272.932 308.592Z" fill="#407BFF"/>
<path d="M281.077 313.462L280.003 313.518C279.799 313.514 279.629 313.408 279.643 313.253L279.932 307.771C279.934 307.615 280.118 307.477 280.332 307.468L281.407 307.398C281.611 307.402 281.782 307.509 281.768 307.677L281.479 313.146C281.466 313.301 281.281 313.453 281.077 313.462Z" fill="#263238"/>
<path d="M307.778 312.077L306.705 312.133C306.5 312.129 306.33 312.022 306.344 311.868L306.633 306.398C306.635 306.23 306.819 306.091 307.023 306.083L308.097 306.027C308.301 306.031 308.471 306.138 308.458 306.292L308.169 311.761C308.166 311.93 307.993 312.068 307.778 312.077Z" fill="#263238"/>
<path d="M285.853 286.78C285.922 287.185 288.795 292.682 291.045 292.302C291.064 292.299 291.083 292.295 291.101 292.292C291.758 292.181 292.412 292.501 292.817 293.133C293.721 294.55 294.267 295.362 294.878 296.292C295.869 297.802 297.59 298.286 299.041 297.475C299.47 297.235 299.895 296.971 300.317 296.701C301.712 295.811 302.423 293.889 302.044 292.045C301.628 290.024 300.982 288.071 300.123 286.265C299.83 285.646 299.493 285.022 298.982 284.665C298.472 284.307 293.517 282.505 291.592 282.578C289.588 282.654 287.687 285.81 285.853 286.78Z" fill="#E8BFBF"/>
<path d="M291.641 282.397C291.641 282.397 261.285 271.337 254.737 278.701C250.887 283.03 252.705 287.118 254.857 289.753C256.458 291.714 259.945 291.232 262.227 291.104L286.139 288.282L291.641 282.397Z" fill="#E8BFBF"/>
<path d="M274.198 277.345C274.033 275.367 272.761 273.725 271.283 272.839C269.805 271.953 268.131 271.691 266.494 271.441C262.679 270.859 258.865 270.277 255.051 269.696C253.114 272.643 251.721 276.691 251.781 280.447C251.842 284.204 253.017 287.92 255.046 290.775C256.871 286.53 259.278 282.159 262.843 280.05C266.408 277.942 270.288 276.493 274.198 277.345Z" fill="#263238"/>
<path opacity="0.1" d="M266.371 210.634C266.337 210.552 266.337 210.511 266.371 210.497C266.612 210.414 266.578 210.469 266.371 210.634Z" fill="white"/>
<path d="M341.788 151.503L350.246 170.371L384.754 135.114C385.058 134.803 384.706 134.241 384.374 134.505L352.024 160.196L347.036 148.494L341.788 151.503Z" fill="#407BFF"/>
<path d="M396.234 151.591C396.234 168.406 381.563 182.032 363.468 182.032C356.52 182.032 350.087 180.033 344.789 176.589L325.551 186.651L337.695 170.376C333.318 165.217 330.701 158.694 330.701 151.589C330.701 134.774 345.373 121.148 363.468 121.148C381.563 121.15 396.234 134.777 396.234 151.591Z" stroke="#407BFF" stroke-width="1.3" stroke-miterlimit="10"/>
</svg>
